Coordinates
version=1
nRows=10
nColumns=46
inDegrees=yes

Units are S.I. units (second, meters, Newtons, ...)
Angles are in degrees.

endheader
time	pelvis_tilt	pelvis_list	pelvis_rotation	pelvis_tx	pelvis_ty	pelvis_tz	bb_angle	bb_tx	bb_ty	bb_tz	hip_flexion_r	hip_adduction_r	hip_rotation_r	knee_angle_r	knee_angle_r_beta	ankle_angle_r	subtalar_angle_r	mtp_angle_r	crank_angle_r	hip_flexion_l	hip_adduction_l	hip_rotation_l	knee_angle_l	knee_angle_l_beta	ankle_angle_l	subtalar_angle_l	mtp_angle_l	crank_angle_l	lumbar_extension	lumbar_bending	lumbar_rotation	arm_flex_r	arm_add_r	arm_rot_r	elbow_flex_r	pro_sup_r	wrist_flex_r	wrist_dev_r	arm_flex_l	arm_add_l	arm_rot_l	elbow_flex_l	pro_sup_l	wrist_flex_l	wrist_dev_l
      7.50000000	    -14.29036795	      2.60774984	      3.34630650	      0.13846818	      1.14875290	     -0.25746210	      0.00000000	      0.50000000	      0.00000000	      0.25000000	     45.62850778	     -8.14046140	     -4.72121207	     44.08046110	      0.76934918	     -3.84271743	     -2.38396479	      0.00000000	      0.00000000	     89.27038731	     -2.91493774	      2.87921041	    114.77983095	      2.00328597	      2.32606677	     -2.47182859	      0.00000000	      0.00000000	    -58.08610973	     -2.16036333	     -1.24284080	     89.78901416	     -7.57174791	     30.88273586	     37.81030093	     21.78658816	      0.00000000	      0.00000000	     89.68760788	     -3.41728971	     33.15070918	     40.44846807	     26.50506429	      0.00000000	      0.00000000
      7.50500000	    -14.30007100	      2.80020438	      3.57984256	      0.13870938	      1.14978300	     -0.25779162	      0.00000000	      0.50000000	      0.00000000	      0.25000000	     45.23157285	     -8.56715288	     -4.89317063	     44.55925461	      0.77770571	     -3.79153315	     -2.37403013	      0.00000000	      0.00000000	     89.86738732	     -2.66178597	      2.61752300	    114.19047172	      1.99299971	      1.92772800	     -2.18842144	      0.00000000	      0.00000000	    -58.15166445	     -2.21699279	     -1.45729855	     89.78710772	     -7.71376887	     30.86894272	     37.73813543	     21.75615823	      0.00000000	      0.00000000	     89.68890013	     -3.15192927	     33.10262499	     40.47739352	     26.45249487	      0.00000000	      0.00000000
      7.51000000	    -14.31665510	      3.22999682	      3.89785423	      0.13887573	      1.15097259	     -0.25841333	      0.00000000	      0.50000000	      0.00000000	      0.25000000	     44.95745022	     -9.31450845	     -4.93492629	     45.27542005	      0.79020515	     -3.37526868	     -1.70915843	      0.00000000	      0.00000000	     90.30307569	     -2.22242410	      2.04134839	    113.42507063	      1.97964094	      1.37490293	     -2.52628950	      0.00000000	      0.00000000	    -58.23083805	     -2.34951344	     -1.88763416	     89.78592793	     -7.87279736	     31.01159240	     37.54489503	     21.64111913	      0.00000000	      0.00000000	     89.69810577	     -2.58781983	     32.45490745	     40.21161188	     26.01204306	      0.00000000	      0.00000000
      7.51500000	    -14.27488610	      3.36043017	      4.10241835	      0.13895528	      1.15197877	     -0.25842783	      0.00000000	      0.50000000	      0.00000000	      0.25000000	     44.69099188	     -9.64010869	     -5.08557207	     46.06115698	      0.80391885	     -3.26174188	     -1.89608659	      0.00000000	      0.00000000	     90.72523844	     -2.04663959	      1.86503604	    112.64073744	      1.96595174	      0.82122530	     -2.19785905	      0.00000000	      0.00000000	    -58.35030655	     -2.40804167	     -2.06730285	     89.78680218	     -7.97590009	     30.97786656	     37.48606291	     21.61337423	      0.00000000	      0.00000000	     89.70247125	     -2.38833435	     32.43041923	     40.25078731	     25.96371320	      0.00000000	      0.00000000
      7.52000000	    -14.35561750	      3.72295343	      4.33518933	      0.13893780	      1.15280823	     -0.25881302	      0.00000000	      0.50000000	      0.00000000	      0.25000000	     44.69786468	    -10.25264124	     -5.08308863	     47.07041648	      0.82153375	     -2.91006509	     -1.65462693	      0.00000000	      0.00000000	     91.12804207	     -1.73945274	      1.36207113	    111.67670084	      1.94912613	      0.06048054	     -2.39364541	      0.00000000	      0.00000000	    -58.35177576	     -2.59174632	     -2.46233293	     89.78394722	     -8.05837859	     30.93780551	     37.34885317	     21.54882102	      0.00000000	      0.00000000	     89.70948672	     -2.06011517	     32.18958449	     40.11684741	     25.73661573	      0.00000000	      0.00000000
      7.52500000	    -14.25737800	      3.76420099	      4.45709748	      0.13889686	      1.15375037	     -0.25883134	      0.00000000	      0.50000000	      0.00000000	      0.25000000	     44.52277002	    -10.42012963	     -5.08748273	     48.07121536	      0.83900098	     -2.69880239	     -1.84563028	      0.00000000	      0.00000000	     91.38880313	     -1.64819081	      1.25773409	    110.74159942	      1.93280553	     -0.72368413	     -2.07270428	      0.00000000	      0.00000000	    -58.49964088	     -2.53154002	     -2.47863730	     89.78406631	     -8.01534422	     30.96164727	     37.28977249	     21.52206104	      0.00000000	      0.00000000	     89.71443077	     -1.93408745	     32.13789799	     40.12566817	     25.68547746	      0.00000000	      0.00000000
      7.53000000	    -14.27662477	      3.92460872	      4.62988273	      0.13873872	      1.15447445	     -0.25887188	      0.00000000	      0.50000000	      0.00000000	      0.25000000	     44.60850727	    -10.77718804	     -5.12492946	     49.29275966	      0.86032095	     -2.35402870	     -2.02089186	      0.00000000	      0.00000000	     91.67422224	     -1.48113090	      1.01370338	    109.65764745	      1.91388700	     -1.77299523	     -1.85705491	      0.00000000	      0.00000000	    -58.55450696	     -2.61384047	     -2.74141106	     89.78440442	     -8.00785798	     30.94229779	     37.20935042	     21.48320862	      0.00000000	      0.00000000	     89.72314257	     -1.68699998	     31.95997666	     40.04446310	     25.58656612	      0.00000000	      0.00000000
      7.53500000	    -14.40100213	      4.12289190	      4.77489981	      0.13839854	      1.15498297	     -0.25901826	      0.00000000	      0.50000000	      0.00000000	      0.25000000	     44.91097272	    -11.13656551	     -4.98074829	     50.61113581	      0.88333096	     -1.92117955	     -2.01853858	      0.00000000	      0.00000000	     91.97327653	     -1.30373690	      0.67188255	    108.45384442	      1.89287667	     -3.00639102	     -2.15327504	      0.00000000	      0.00000000	    -58.48204170	     -2.73255792	     -3.02903202	     89.78305654	     -7.96733351	     30.87679344	     37.06516795	     21.42373555	      0.00000000	      0.00000000	     89.72940693	     -1.41332094	     31.58153017	     39.88723846	     25.41076305	      0.00000000	      0.00000000
      7.54000000	    -14.46072344	      4.31735423	      4.89488681	      0.13795967	      1.15540576	     -0.25932770	      0.00000000	      0.50000000	      0.00000000	      0.25000000	     45.28776202	    -11.50538009	     -4.74862370	     52.10838439	      0.90946288	     -1.53510400	     -1.83029245	      0.00000000	      0.00000000	     92.16620720	     -1.12438816	      0.30810481	    107.22197866	      1.87137656	     -4.46716186	     -2.69095265	      0.00000000	      0.00000000	    -58.45070142	     -2.79353153	     -3.29263683	     89.78354566	     -7.84845273	     30.75081338	     36.89416488	     21.35758740	      0.00000000	      0.00000000	     89.73474832	     -1.05574278	     30.95814972	     39.68394291	     25.12985680	      0.00000000	      0.00000000
      7.54500000	    -14.57802263	      4.28438356	      4.88972111	      0.13727784	      1.15580311	     -0.25918520	      0.00000000	      0.50000000	      0.00000000	      0.25000000	     45.73851137	    -11.61826914	     -4.81038670	     53.49067676	      0.93358843	     -1.31003259	     -1.96056650	      0.00000000	      0.00000000	     92.38030850	     -1.14644331	      0.22102247	    105.92451887	      1.84873161	     -5.90109023	     -2.73395560	      0.00000000	      0.00000000	    -58.36923827	     -2.82755340	     -3.28888944	     89.78417339	     -7.76582934	     30.61016155	     36.84361110	     21.32172168	      0.00000000	      0.00000000	     89.73895113	     -0.86011042	     30.61116734	     39.66636642	     24.96461926	      0.00000000	      0.00000000
